<mxfile host="app.diagrams.net" modified="2023-12-29T09:53:26.527Z" agent="Mozilla/5.0 (Macintosh; Intel Mac OS X 10_15_7) AppleWebKit/537.36 (KHTML, like Gecko) Chrome/120.0.0.0 Safari/537.36 Edg/120.0.0.0" version="22.1.15" etag="Z80ssfC0YbWjQAe5XMUw" type="github">
  <diagram name="StrÃ¡nka-1" id="8cjD9SwyUDKLBQFLX9wE">
    <mxGraphModel>
      <root>
        <mxCell id="0" />
        <mxCell id="1" parent="0" />
      </root>
    </mxGraphModel>
  </diagram>
</mxfile>
